<?xml version="1.0" encoding="UTF-8" standalone="no"?>
<svg
   sodipodi:docname="MServer.svg"
   inkscape:version="1.4 (e7c3feb100, 2024-10-09)"
   width="512.0px"
   height="512.0px"
   viewBox="0 0 512.0 512.0"
   version="1.1"
   id="SVGRoot"
   xmlns:inkscape="http://www.inkscape.org/namespaces/inkscape"
   xmlns:sodipodi="http://sodipodi.sourceforge.net/DTD/sodipodi-0.dtd"
   xmlns:xlink="http://www.w3.org/1999/xlink"
   xmlns="http://www.w3.org/2000/svg"
   xmlns:svg="http://www.w3.org/2000/svg"
   xmlns:rdf="http://www.w3.org/1999/02/22-rdf-syntax-ns#"
   xmlns:cc="http://creativecommons.org/ns#"
   xmlns:dc="http://purl.org/dc/elements/1.1/">
  <defs
     id="defs3995">
    <filter
       inkscape:label="Black Hole"
       inkscape:menu="Morphology"
       inkscape:menu-tooltip="Creates a black light inside and outside"
       height="1.0441137"
       width="1.0594339"
       y="-0.022056837"
       x="-0.029716946"
       style="color-interpolation-filters:sRGB"
       id="filter776">
      <feGaussianBlur
         stdDeviation="5"
         in="SourceAlpha"
         result="result1"
         id="feGaussianBlur764" />
      <feComposite
         operator="arithmetic"
         k2="3.2"
         k1="-1"
         k4="-2"
         result="result3"
         in2="result1"
         id="feComposite766"
         k3="0" />
      <feColorMatrix
         values="1 0 0 0 0 0 1 0 0 0 0 0 1 0 0 0 0 0 10 0 "
         result="result2"
         id="feColorMatrix768" />
      <feComposite
         result="fbSourceGraphic"
         in="SourceGraphic"
         operator="out"
         in2="result2"
         id="feComposite770" />
      <feBlend
         mode="multiply"
         in="result1"
         in2="fbSourceGraphic"
         result="result91"
         id="feBlend772" />
      <feBlend
         mode="screen"
         in="fbSourceGraphic"
         in2="result91"
         id="feBlend774" />
    </filter>
    <linearGradient
       inkscape:collect="always"
       xlink:href="#linearGradient15073"
       id="linearGradient15075"
       x1="5.6501589"
       y1="32.501705"
       x2="57.156647"
       y2="32.501705"
       gradientUnits="userSpaceOnUse"
       spreadMethod="reflect" />
    <linearGradient
       inkscape:collect="always"
       id="linearGradient15073">
      <stop
         style="stop-color:#2b3997;stop-opacity:1;"
         offset="0.84304434"
         id="stop15069" />
      <stop
         style="stop-color:#7986d9;stop-opacity:1;"
         offset="1"
         id="stop15071" />
    </linearGradient>
    <filter
       inkscape:label="In and Out"
       inkscape:menu="Shadows and Glows"
       inkscape:menu-tooltip="Inner colorized shadow, outer black shadow"
       style="color-interpolation-filters:sRGB"
       id="filter13576"
       x="-1.0973413"
       y="-0.57427763"
       width="3.7635905"
       height="2.4469364">
      <feGaussianBlur
         result="result0"
         in="SourceAlpha"
         stdDeviation="4"
         id="feGaussianBlur13570" />
      <feOffset
         dx="5"
         dy="5"
         result="result4"
         id="feOffset13572" />
      <feComposite
         in="SourceGraphic"
         in2="result4"
         operator="xor"
         result="result3"
         id="feComposite13574" />
    </filter>
  </defs>
  <sodipodi:namedview
     inkscape:window-maximized="1"
     inkscape:window-y="0"
     inkscape:window-x="0"
     inkscape:window-height="1120"
     inkscape:window-width="1920"
     showgrid="true"
     inkscape:document-rotation="0"
     inkscape:current-layer="layer1"
     inkscape:document-units="px"
     inkscape:cy="661.42857"
     inkscape:cx="-557.14286"
     inkscape:zoom="0.35"
     inkscape:pageshadow="2"
     inkscape:pageopacity="0.0"
     borderopacity="1.0"
     bordercolor="#666666"
     pagecolor="#ffffff"
     id="base"
     inkscape:showpageshadow="2"
     inkscape:pagecheckerboard="0"
     inkscape:deskcolor="#d1d1d1">
    <inkscape:grid
       type="xygrid"
       id="grid4565"
       originx="0"
       originy="0"
       spacingy="1"
       spacingx="1"
       units="px" />
  </sodipodi:namedview>
  <metadata
     id="metadata3998">
    <rdf:RDF>
      <cc:Work
         rdf:about="">
        <dc:format>image/svg+xml</dc:format>
        <dc:type
           rdf:resource="http://purl.org/dc/dcmitype/StillImage" />
        <dc:title />
      </cc:Work>
    </rdf:RDF>
  </metadata>
  <g
     id="layer1"
     inkscape:groupmode="layer"
     inkscape:label="Vrstva 1">
    <g
       id="g1"
       transform="matrix(0.70992052,0,0,0.70992052,-94.808123,140.25456)">
      <g
         id="g3038"
         transform="matrix(7.3142855,0,0,7.3141813,1.1487061e-5,-4659.1335)">
        <path
           fill="#b2b2b2"
           d="m 48.138,704.971 v -3.212 c 0,-4.757 3.885,-8.827 8.521,-9.23 H 21.237 c -0.683,0 -1.237,0.388 -1.237,1.071 v 12.304 c 0,0.685 0.554,1.097 1.237,1.097 h 27.497 c -0.28,-0.401 -0.596,-1.264 -0.596,-2.03 z"
           id="path2988" />
        <path
           fill="#595959"
           d="m 70,672.444 c 0,0.686 -0.555,1.237 -1.238,1.237 H 21.237 c -0.683,0 -1.237,-0.552 -1.237,-1.237 v -12.303 c 0,-0.686 0.554,-1.239 1.237,-1.239 h 47.525 c 0.683,0 1.238,0.554 1.238,1.239 z"
           id="path2990" />
        <circle
           fill="#f79903"
           cx="62.91"
           cy="666.29303"
           r="2.404"
           id="circle2992" />
        <g
           id="g3004">
          <polygon
             fill-rule="evenodd"
             clip-rule="evenodd"
             fill="#ffffff"
             points="37.943,663.401 40.235,663.401 37.351,669.182 35.06,669.182 "
             id="polygon2994" />
          <g
             id="g3002">
            <polygon
               fill-rule="evenodd"
               clip-rule="evenodd"
               fill="#ffffff"
               points="29.527,663.401 31.82,663.401 28.938,669.182 26.644,669.182 "
               id="polygon2996" />
            <polygon
               fill-rule="evenodd"
               clip-rule="evenodd"
               fill="#ffffff"
               points="33.736,663.401 36.029,663.401 33.144,669.182 30.852,669.182 "
               id="polygon2998" />
            <polygon
               fill-rule="evenodd"
               clip-rule="evenodd"
               fill="#ffffff"
               points="42.171,663.401 44.464,663.401 41.579,669.182 39.285,669.182 "
               id="polygon3000" />
          </g>
        </g>
        <path
           fill="#b2b2b2"
           d="m 70,689.291 c 0,0.685 -0.555,1.237 -1.238,1.237 H 21.237 c -0.683,0 -1.237,-0.553 -1.237,-1.237 v -12.304 c 0,-0.684 0.554,-1.237 1.237,-1.237 h 47.525 c 0.683,0 1.238,0.554 1.238,1.237 z"
           id="path3006" />
        <path
           fill="#f79903"
           d="m 65.313,683.141 c 0,1.326 -1.077,2.403 -2.404,2.403 -1.329,0 -2.404,-1.077 -2.404,-2.403 0,-1.331 1.075,-2.406 2.404,-2.406 1.327,-10e-4 2.404,1.075 2.404,2.406 z"
           id="path3008" />
        <g
           id="g3020">
          <polygon
             fill-rule="evenodd"
             clip-rule="evenodd"
             fill="#595959"
             points="37.943,680.249 40.235,680.249 37.351,686.029 35.06,686.029 "
             id="polygon3010" />
          <g
             id="g3018">
            <polygon
               fill-rule="evenodd"
               clip-rule="evenodd"
               fill="#595959"
               points="29.527,680.249 31.82,680.249 28.938,686.029 26.644,686.029 "
               id="polygon3012" />
            <polygon
               fill-rule="evenodd"
               clip-rule="evenodd"
               fill="#595959"
               points="33.736,680.249 36.029,680.249 33.144,686.029 30.852,686.029 "
               id="polygon3014" />
            <polygon
               fill-rule="evenodd"
               clip-rule="evenodd"
               fill="#595959"
               points="42.171,680.249 44.464,680.249 41.579,686.029 39.285,686.029 "
               id="polygon3016" />
          </g>
        </g>
        <g
           id="g3032">
          <polygon
             fill-rule="evenodd"
             clip-rule="evenodd"
             fill="#595959"
             points="37.943,696.86 40.235,696.86 37.351,702.64 35.06,702.64 "
             id="polygon3022" />
          <g
             id="g3030">
            <polygon
               fill-rule="evenodd"
               clip-rule="evenodd"
               fill="#595959"
               points="29.527,696.86 31.82,696.86 28.938,702.64 26.644,702.64 "
               id="polygon3024" />
            <polygon
               fill-rule="evenodd"
               clip-rule="evenodd"
               fill="#595959"
               points="33.736,696.86 36.029,696.86 33.144,702.64 30.852,702.64 "
               id="polygon3026" />
            <polygon
               fill-rule="evenodd"
               clip-rule="evenodd"
               fill="#595959"
               points="42.171,696.86 44.464,696.86 41.579,702.64 39.285,702.64 "
               id="polygon3028" />
          </g>
        </g>
        <g
           id="g3036">
          <path
             fill="#f79903"
             d="m 68.036,706.811 c -1.012,0 -1.839,-0.825 -1.839,-1.84 v -3.212 c 0,-0.855 -0.695,-1.544 -1.552,-1.544 -0.848,0 -1.532,0.688 -1.532,1.544 v 3.212 c 0,1.015 -0.835,1.84 -1.853,1.84 -1.044,0 -1.871,-0.825 -1.871,-1.84 v -3.212 c 0,-0.855 -0.7,-1.544 -1.548,-1.544 -0.849,0 -1.543,0.688 -1.543,1.544 v 3.212 c 0,1.015 -0.832,1.84 -1.847,1.84 -1.015,0 -1.841,-0.825 -1.841,-1.84 v -3.212 c 0,-2.886 2.343,-5.24 5.232,-5.24 1.181,0 2.306,0.398 3.242,1.131 l 0.168,0.139 0.167,-0.139 c 0.931,-0.732 2.049,-1.131 3.227,-1.131 2.898,0 5.246,2.354 5.246,5.24 v 3.212 c -0.002,1.014 -0.835,1.84 -1.856,1.84 z"
             id="path3034" />
        </g>
      </g>
    </g>
    <g
       id="g19091"
       transform="matrix(5.8011072,0,0,5.8011076,109.24774,9.5672784)"
       style="display:inline">
      <rect
         style="fill:url(#linearGradient15075);fill-opacity:1;stroke:#081170;stroke-opacity:0.956863"
         id="rect285"
         width="50.506489"
         height="50.400959"
         x="6.1501589"
         y="7.3012242" />
      <path
         style="fill:#d1e9ff;fill-opacity:1;stroke:#010366;stroke-width:1px;stroke-linecap:butt;stroke-linejoin:miter;stroke-opacity:1"
         d="M 21.670948,2.0910314 22.256588,23.901433 33.57498,28.431897 46.537275,13.543341 C 44.259481,8.9571176 30.545236,2.3340073 21.670948,2.0910314 Z"
         id="path4846"
         sodipodi:nodetypes="ccccc" />
      <path
         style="fill:#d1e9ff;fill-opacity:1;stroke:#010366;stroke-width:1px;stroke-linecap:butt;stroke-linejoin:miter;stroke-opacity:1"
         d="m 52.928889,18.981217 -15.103702,15.74531 4.731906,11.235665 19.701405,-1.24291 C 63.920137,39.875652 58.993036,25.4649 52.928889,18.981217 Z"
         id="path9498"
         sodipodi:nodetypes="ccccc"
         inkscape:transform-center-x="-32.778219"
         inkscape:transform-center-y="-17.643799" />
      <path
         style="fill:#d1e9ff;fill-opacity:1;stroke:#010366;stroke-width:1px;stroke-linecap:butt;stroke-linejoin:miter;stroke-opacity:1"
         d="M 63.348447,52.979504 42.784635,52.028169 39.376545,62.648525 61.531538,61.88183 c 0.02723,0.331844 1.05268,-0.909233 1.816909,-8.902326 z"
         id="path9554"
         sodipodi:nodetypes="ccccc"
         inkscape:transform-center-x="-32.778219"
         inkscape:transform-center-y="-17.643799" />
      <path
         style="fill:#d1e9ff;fill-opacity:1;stroke:#010366;stroke-width:1px;stroke-linecap:butt;stroke-linejoin:miter;stroke-opacity:1"
         d="M 16.48884,2.180891 C 10.484254,2.3354853 4.9609929,3.5088241 0.23723017,6.374336 L 1.3397665,25.33281 3.6510943,28.700137 18.16104,23.371221 c 0,0 -0.638079,-8.450018 -1.6722,-21.19033 z"
         id="path9556"
         sodipodi:nodetypes="cccccc"
         inkscape:transform-center-x="-32.778219"
         inkscape:transform-center-y="-17.643799" />
      <path
         style="fill:#d1e9ff;fill-opacity:1;stroke:#010366;stroke-width:1px;stroke-linecap:butt;stroke-linejoin:miter;stroke-opacity:1"
         d="M 19.144328,30.523093 6.9988496,35.509805 2.0590546,47.296771 8.0548748,61.502828 30.860391,61.584697 37.029684,47.41587 32.735484,35.745523 Z"
         id="path9558"
         sodipodi:nodetypes="cccccccc"
         inkscape:transform-center-x="-32.778219"
         inkscape:transform-center-y="-17.643799" />
      <path
         style="fill:#aaaaff;stroke:#818cef;stroke-width:0.1;stroke-linecap:butt;stroke-linejoin:miter;stroke-dasharray:none;stroke-opacity:1"
         d="M 29.40006,34.799316 C 6.5000662,56.761504 6.5000662,56.761504 6.5000662,56.761504"
         id="path11789" />
      <path
         style="fill:#aaaaff;stroke:#818cef;stroke-width:0.1;stroke-linecap:butt;stroke-linejoin:miter;stroke-dasharray:none;stroke-opacity:1;filter:url(#filter13576)"
         d="m 44.477997,27.84526 8.788769,16.757093"
         id="path11789-3"
         sodipodi:nodetypes="cc" />
      <g
         id="g17389">
        <path
           style="fill:none;stroke:#818cef;stroke-width:0.1;stroke-linecap:butt;stroke-linejoin:miter;stroke-dasharray:none;stroke-opacity:1"
           d="m 19.393052,31.232193 3.290946,15.141799 7.127425,14.955089"
           id="path11789-6"
           sodipodi:nodetypes="ccc" />
      </g>
    </g>
  </g>
</svg>
